<?xml version="1.0" standalone="no"?>
<!DOCTYPE svg PUBLIC "-//W3C//DTD SVG 20010904//EN"
 "http://www.w3.org/TR/2001/REC-SVG-20010904/DTD/svg10.dtd">
<svg version="1.0" xmlns="http://www.w3.org/2000/svg"
 width="640.000000pt" height="640.000000pt" viewBox="0 0 640.000000 640.000000"
 preserveAspectRatio="xMidYMid meet">
<metadata>
Created by potrace 1.11, written by Peter Selinger 2001-2013
</metadata>
<g transform="translate(0.000000,640.000000) scale(0.100000,-0.100000)"
fill="#000000" stroke="none">
<path d="M1790 3810 l0 -1010 -320 0 -320 0 0 -95 0 -95 320 0 320 0 0 -420 0
-420 100 0 100 0 0 420 0 420 422 0 c400 0 420 -1 406 -17 -61 -72 -666 -801
-672 -810 -6 -10 23 -13 133 -13 l140 0 343 420 343 419 758 1 757 0 0 -315 0
-315 -916 0 -917 0 7 -77 c3 -42 6 -89 6 -105 l0 -28 1010 0 1010 0 0 420 0
420 310 0 310 0 0 95 0 95 -310 0 -310 0 0 1010 0 1011 -105 -3 -105 -3 -813
-1005 -813 -1005 -497 -3 -497 -2 0 910 0 910 915 0 915 0 0 100 0 100 -1015
0 -1015 0 0 -1010z m2827 -1007 c-2 -2 -317 -2 -700 -1 l-696 3 697 841 697
840 3 -839 c1 -462 1 -842 -1 -844z"/>
</g>
</svg>
